<mxfile host="app.diagrams.net" agent="Mozilla/5.0 (X11; Linux x86_64) AppleWebKit/537.36 (KHTML, like Gecko) Chrome/131.0.0.0 Safari/537.36" version="26.0.6">
  <diagram name="Page-1" id="VbM0QGf8IZRgNGOa6c49">
    <mxGraphModel dx="1247" dy="686" grid="1" gridSize="10" guides="1" tooltips="1" connect="1" arrows="1" fold="1" page="1" pageScale="1" pageWidth="850" pageHeight="1100" math="0" shadow="0">
      <root>
        <mxCell id="0" />
        <mxCell id="1" parent="0" />
        <mxCell id="VQOmYIT4Rl6xpOW07CCM-15" value="" style="edgeStyle=orthogonalEdgeStyle;rounded=0;orthogonalLoop=1;jettySize=auto;html=1;" edge="1" parent="1" source="VQOmYIT4Rl6xpOW07CCM-1" target="VQOmYIT4Rl6xpOW07CCM-14">
          <mxGeometry relative="1" as="geometry" />
        </mxCell>
        <mxCell id="VQOmYIT4Rl6xpOW07CCM-1" value="RP2040" style="rounded=1;whiteSpace=wrap;html=1;" vertex="1" parent="1">
          <mxGeometry x="360" y="390" width="120" height="60" as="geometry" />
        </mxCell>
        <mxCell id="VQOmYIT4Rl6xpOW07CCM-3" value="" style="edgeStyle=orthogonalEdgeStyle;rounded=0;orthogonalLoop=1;jettySize=auto;html=1;" edge="1" parent="1" source="VQOmYIT4Rl6xpOW07CCM-2" target="VQOmYIT4Rl6xpOW07CCM-1">
          <mxGeometry relative="1" as="geometry" />
        </mxCell>
        <mxCell id="VQOmYIT4Rl6xpOW07CCM-2" value="USB C" style="rounded=1;whiteSpace=wrap;html=1;" vertex="1" parent="1">
          <mxGeometry x="440" y="260" width="120" height="60" as="geometry" />
        </mxCell>
        <mxCell id="VQOmYIT4Rl6xpOW07CCM-5" value="" style="edgeStyle=orthogonalEdgeStyle;rounded=0;orthogonalLoop=1;jettySize=auto;html=1;" edge="1" parent="1" source="VQOmYIT4Rl6xpOW07CCM-4" target="VQOmYIT4Rl6xpOW07CCM-1">
          <mxGeometry relative="1" as="geometry" />
        </mxCell>
        <mxCell id="VQOmYIT4Rl6xpOW07CCM-4" value="Input&lt;div&gt;(I2c)&lt;/div&gt;" style="rounded=1;whiteSpace=wrap;html=1;" vertex="1" parent="1">
          <mxGeometry x="550" y="390" width="120" height="60" as="geometry" />
        </mxCell>
        <mxCell id="VQOmYIT4Rl6xpOW07CCM-7" value="" style="edgeStyle=orthogonalEdgeStyle;rounded=0;orthogonalLoop=1;jettySize=auto;html=1;" edge="1" parent="1" source="VQOmYIT4Rl6xpOW07CCM-6" target="VQOmYIT4Rl6xpOW07CCM-1">
          <mxGeometry relative="1" as="geometry" />
        </mxCell>
        <mxCell id="VQOmYIT4Rl6xpOW07CCM-17" value="" style="edgeStyle=orthogonalEdgeStyle;rounded=0;orthogonalLoop=1;jettySize=auto;html=1;" edge="1" parent="1" source="VQOmYIT4Rl6xpOW07CCM-6" target="VQOmYIT4Rl6xpOW07CCM-16">
          <mxGeometry relative="1" as="geometry" />
        </mxCell>
        <mxCell id="VQOmYIT4Rl6xpOW07CCM-6" value="5v - 3v3 converter" style="rounded=1;whiteSpace=wrap;html=1;" vertex="1" parent="1">
          <mxGeometry x="360" y="510" width="120" height="60" as="geometry" />
        </mxCell>
        <mxCell id="VQOmYIT4Rl6xpOW07CCM-9" value="" style="edgeStyle=orthogonalEdgeStyle;rounded=0;orthogonalLoop=1;jettySize=auto;html=1;" edge="1" parent="1" source="VQOmYIT4Rl6xpOW07CCM-8" target="VQOmYIT4Rl6xpOW07CCM-6">
          <mxGeometry relative="1" as="geometry" />
        </mxCell>
        <mxCell id="VQOmYIT4Rl6xpOW07CCM-8" value="5v Input" style="rounded=1;whiteSpace=wrap;html=1;" vertex="1" parent="1">
          <mxGeometry x="550" y="510" width="120" height="60" as="geometry" />
        </mxCell>
        <mxCell id="VQOmYIT4Rl6xpOW07CCM-11" value="" style="edgeStyle=orthogonalEdgeStyle;rounded=0;orthogonalLoop=1;jettySize=auto;html=1;" edge="1" parent="1" source="VQOmYIT4Rl6xpOW07CCM-10" target="VQOmYIT4Rl6xpOW07CCM-1">
          <mxGeometry relative="1" as="geometry" />
        </mxCell>
        <mxCell id="VQOmYIT4Rl6xpOW07CCM-10" value="Flash Storage" style="rounded=1;whiteSpace=wrap;html=1;" vertex="1" parent="1">
          <mxGeometry x="290" y="260" width="120" height="60" as="geometry" />
        </mxCell>
        <mxCell id="VQOmYIT4Rl6xpOW07CCM-13" value="" style="edgeStyle=orthogonalEdgeStyle;rounded=0;orthogonalLoop=1;jettySize=auto;html=1;" edge="1" parent="1" source="VQOmYIT4Rl6xpOW07CCM-12" target="VQOmYIT4Rl6xpOW07CCM-10">
          <mxGeometry relative="1" as="geometry" />
        </mxCell>
        <mxCell id="VQOmYIT4Rl6xpOW07CCM-12" value="Bootsel" style="rounded=1;whiteSpace=wrap;html=1;" vertex="1" parent="1">
          <mxGeometry x="290" y="160" width="120" height="60" as="geometry" />
        </mxCell>
        <mxCell id="VQOmYIT4Rl6xpOW07CCM-14" value="Data Output" style="rounded=1;whiteSpace=wrap;html=1;" vertex="1" parent="1">
          <mxGeometry x="200" y="390" width="120" height="60" as="geometry" />
        </mxCell>
        <mxCell id="VQOmYIT4Rl6xpOW07CCM-16" value="5v Output" style="rounded=1;whiteSpace=wrap;html=1;" vertex="1" parent="1">
          <mxGeometry x="200" y="510" width="120" height="60" as="geometry" />
        </mxCell>
      </root>
    </mxGraphModel>
  </diagram>
</mxfile>
